<svg width="48" height="48" viewBox="0 0 48 48" fill="none" xmlns="http://www.w3.org/2000/svg">
<rect width="48" height="48" rx="24" fill="#29292E"/>
<path fill-rule="evenodd" clip-rule="evenodd" d="M17.6893 14.6893C17.9706 14.408 18.3522 14.25 18.75 14.25H29.25C29.6478 14.25 30.0294 14.408 30.3107 14.6893C30.592 14.9706 30.75 15.3522 30.75 15.75V19.0921C30.7486 19.3233 30.6941 19.5511 30.5907 19.7578C30.4873 19.9646 30.3378 20.1449 30.1537 20.2847L24.4525 24.5981C24.1858 24.7999 23.8176 24.8007 23.55 24.6L17.8463 20.3222C17.6622 20.1824 17.5127 20.0021 17.4093 19.7953C17.3059 19.5886 17.2514 19.3608 17.25 19.1296L17.25 19.125L17.25 15.75C17.25 15.3522 17.408 14.9706 17.6893 14.6893ZM29.25 15.75H18.75V19.1208L18.751 19.1245L18.7533 19.1275L23.998 23.061L29.2463 19.0903L29.249 19.087L29.25 19.0833V15.75Z" fill="#FBA94C"/>
<path fill-rule="evenodd" clip-rule="evenodd" d="M23.55 23.4C23.8176 23.1993 24.1858 23.2001 24.4525 23.4019L30.1537 27.7153C30.3378 27.8551 30.4873 28.0354 30.5907 28.2422C30.6941 28.4489 30.7486 28.6767 30.75 28.9079L30.75 28.9125L30.75 32.25C30.75 32.6478 30.592 33.0294 30.3107 33.3107C30.0294 33.592 29.6478 33.75 29.25 33.75H18.75C18.3522 33.75 17.9706 33.592 17.6893 33.3107C17.408 33.0294 17.25 32.6478 17.25 32.25V28.8704C17.2514 28.6392 17.3059 28.4114 17.4093 28.2047C17.5127 27.9979 17.6622 27.8176 17.8463 27.6778L17.85 27.675L23.55 23.4ZM18.75 28.8792L18.751 28.8755L18.7533 28.8725L23.998 24.939L29.2463 28.9097L29.249 28.913L29.2495 28.9142L29.25 28.9167V32.25H18.75V28.8792Z" fill="#FBA94C"/>
</svg>
