<svg width="48" height="48" viewBox="0 0 48 48" fill="none" xmlns="http://www.w3.org/2000/svg">
<rect width="48" height="48" rx="24" fill="#29292E"/>
<path fill-rule="evenodd" clip-rule="evenodd" d="M22.1073 16.4267C21.833 16.6642 21.5044 16.9143 21.1287 17.0706C20.7501 17.2281 20.3411 17.2817 19.9812 17.3054C19.7455 17.3209 19.4825 17.3251 19.2428 17.3289C19.1291 17.3307 19.0206 17.3324 18.9227 17.3352C18.2018 17.356 17.8348 17.4446 17.6397 17.6397C17.4457 17.8337 17.3606 18.1898 17.3423 18.9063C17.34 18.998 17.3386 19.0987 17.3371 19.2042C17.3337 19.4491 17.33 19.7201 17.3132 19.9671C17.2883 20.3323 17.2316 20.7443 17.0699 21.1303C16.9099 21.5124 16.6597 21.8441 16.4195 22.1223C16.2557 22.3121 16.0667 22.5094 15.8951 22.6885C15.8222 22.7647 15.7523 22.8375 15.6889 22.9051C15.4572 23.1523 15.2782 23.3621 15.1564 23.5598C15.0376 23.7525 15 23.8913 15 24C15 24.1077 15.038 24.2488 15.1594 24.4461C15.2832 24.6473 15.4646 24.8611 15.6971 25.1101C15.7635 25.1813 15.8372 25.2584 15.9142 25.339C16.0832 25.5159 16.268 25.7094 16.4267 25.8927C16.6642 26.167 16.9143 26.4956 17.0706 26.8713C17.2281 27.2499 17.2817 27.6589 17.3054 28.0188C17.3209 28.2545 17.3251 28.5175 17.3289 28.7572C17.3307 28.8709 17.3324 28.9794 17.3352 29.0773C17.356 29.7982 17.4446 30.1652 17.6397 30.3603C17.8337 30.5543 18.1898 30.6394 18.9063 30.6577C18.998 30.66 19.0987 30.6614 19.2043 30.6629C19.4491 30.6663 19.7201 30.67 19.9671 30.6868C20.3323 30.7117 20.7443 30.7684 21.1303 30.9301C21.5124 31.0901 21.8441 31.3403 22.1223 31.5805C22.3121 31.7443 22.5094 31.9333 22.6884 32.1048C22.7646 32.1778 22.8375 32.2477 22.9051 32.311C23.1523 32.5428 23.3621 32.7218 23.5598 32.8436C23.7525 32.9624 23.8913 33 24 33C24.1077 33 24.2488 32.962 24.4461 32.8406C24.6473 32.7168 24.8611 32.5354 25.1101 32.3029C25.1813 32.2365 25.2584 32.1628 25.339 32.0858C25.5159 31.9168 25.7094 31.732 25.8927 31.5733C26.167 31.3358 26.4956 31.0857 26.8713 30.9294C27.2499 30.7719 27.6589 30.7183 28.0188 30.6946C28.2545 30.6791 28.5175 30.6749 28.7572 30.6711C28.8709 30.6693 28.9794 30.6676 29.0773 30.6648C29.7982 30.644 30.1652 30.5554 30.3603 30.3603C30.5543 30.1663 30.6394 29.8102 30.6577 29.0937C30.66 29.002 30.6614 28.9013 30.6629 28.7957C30.6663 28.5509 30.67 28.2799 30.6868 28.0329C30.7117 27.6677 30.7684 27.2557 30.9301 26.8697C31.0901 26.4876 31.3403 26.1559 31.5805 25.8777C31.7443 25.6879 31.9333 25.4906 32.1048 25.3116C32.1778 25.2354 32.2477 25.1625 32.311 25.0949C32.5428 24.8477 32.7218 24.6379 32.8436 24.4402C32.9624 24.2475 33 24.1087 33 24C33 23.8923 32.962 23.7512 32.8406 23.5539C32.7168 23.3527 32.5354 23.1389 32.3029 22.8899C32.2365 22.8187 32.1628 22.7416 32.0858 22.661C31.9168 22.4841 31.732 22.2906 31.5733 22.1073C31.3358 21.833 31.0857 21.5044 30.9294 21.1287C30.7719 20.7501 30.7183 20.3411 30.6946 19.9812C30.6791 19.7455 30.6749 19.4825 30.6711 19.2428C30.6693 19.1291 30.6676 19.0206 30.6648 18.9227C30.644 18.2018 30.5554 17.8348 30.3603 17.6397C30.1663 17.4457 29.8102 17.3606 29.0937 17.3423C29.002 17.34 28.9013 17.3386 28.7958 17.3371C28.5509 17.3337 28.2799 17.33 28.0329 17.3132C27.6677 17.2883 27.2557 17.2316 26.8697 17.0699C26.4876 16.9099 26.1559 16.6597 25.8777 16.4195C25.6879 16.2557 25.4906 16.0667 25.3115 15.8951C25.2353 15.8222 25.1625 15.7523 25.0949 15.6889C24.8477 15.4572 24.6379 15.2782 24.4402 15.1564C24.2475 15.0376 24.1087 15 24 15C23.8923 15 23.7512 15.038 23.5539 15.1594C23.3527 15.2832 23.1389 15.4646 22.8899 15.6971C22.8187 15.7635 22.7416 15.8372 22.661 15.9142C22.4841 16.0832 22.2906 16.268 22.1073 16.4267ZM22.768 13.8818C23.1074 13.673 23.5218 13.5 24 13.5C24.4772 13.5 24.8892 13.671 25.2274 13.8795C25.5606 14.0849 25.8617 14.3517 26.1208 14.5946C26.2151 14.6831 26.3021 14.7665 26.3853 14.8463C26.549 15.0032 26.6978 15.1459 26.8579 15.2841C27.0918 15.486 27.2827 15.6167 27.4491 15.6863C27.6115 15.7543 27.8323 15.796 28.1347 15.8166C28.3413 15.8307 28.5415 15.8333 28.7633 15.8363C28.879 15.8378 29.0006 15.8395 29.1321 15.8428C29.7913 15.8597 30.7525 15.9105 31.421 16.579C32.0884 17.2465 32.145 18.2154 32.1641 18.8796C32.1682 19.0215 32.1702 19.1514 32.172 19.2745C32.1753 19.4884 32.1782 19.6818 32.1914 19.8828C32.2114 20.187 32.2515 20.4015 32.3144 20.5526C32.3784 20.7065 32.5045 20.8912 32.7073 21.1255C32.8427 21.2819 32.9818 21.4274 33.1349 21.5874C33.2184 21.6746 33.306 21.7663 33.3994 21.8663C33.6439 22.1283 33.9119 22.4325 34.1182 22.768C34.327 23.1074 34.5 23.5218 34.5 24C34.5 24.4772 34.329 24.8892 34.1205 25.2274C33.9151 25.5606 33.6483 25.8617 33.4054 26.1208C33.3169 26.2151 33.2335 26.3021 33.1537 26.3853C32.9968 26.549 32.8541 26.6978 32.7159 26.8579C32.514 27.0918 32.3833 27.2827 32.3137 27.4491C32.2457 27.6115 32.204 27.8323 32.1834 28.1347C32.1693 28.3413 32.1667 28.5415 32.1637 28.7633C32.1622 28.879 32.1605 29.0006 32.1572 29.1321C32.1403 29.7913 32.0895 30.7525 31.421 31.421C30.7535 32.0884 29.7846 32.145 29.1204 32.1641C28.9785 32.1682 28.8486 32.1702 28.7255 32.172C28.5116 32.1753 28.3182 32.1782 28.1172 32.1914C27.813 32.2114 27.5985 32.2515 27.4474 32.3144C27.2935 32.3784 27.1088 32.5045 26.8745 32.7073C26.7181 32.8427 26.5726 32.9818 26.4126 33.1349C26.3254 33.2184 26.2337 33.306 26.1337 33.3994C25.8717 33.6439 25.5675 33.9119 25.232 34.1182C24.8926 34.327 24.4782 34.5 24 34.5C23.5228 34.5 23.1108 34.329 22.7726 34.1205C22.4394 33.9151 22.1383 33.6483 21.8792 33.4054C21.7849 33.3169 21.6979 33.2335 21.6147 33.1537C21.451 32.9968 21.3022 32.8541 21.1421 32.7159C20.9082 32.514 20.7173 32.3833 20.5509 32.3137C20.3885 32.2457 20.1677 32.204 19.8653 32.1834C19.6587 32.1693 19.4585 32.1667 19.2367 32.1637C19.121 32.1622 18.9994 32.1605 18.868 32.1572C18.2087 32.1403 17.2475 32.0895 16.579 31.421C15.9116 30.7535 15.855 29.7846 15.8359 29.1204C15.8318 28.9785 15.8298 28.8486 15.828 28.7255C15.8247 28.5116 15.8218 28.3182 15.8086 28.1172C15.7886 27.813 15.7485 27.5985 15.6856 27.4474C15.6216 27.2935 15.4955 27.1088 15.2927 26.8745C15.1573 26.7181 15.0182 26.5726 14.8651 26.4126C14.7816 26.3254 14.694 26.2337 14.6006 26.1337C14.3561 25.8717 14.0881 25.5675 13.8818 25.232C13.673 24.8926 13.5 24.4782 13.5 24C13.5 23.5228 13.671 23.1108 13.8795 22.7726C14.0849 22.4394 14.3517 22.1383 14.5946 21.8792C14.6831 21.7849 14.7665 21.6979 14.8463 21.6147C15.0032 21.451 15.1459 21.3022 15.2841 21.1421C15.486 20.9082 15.6167 20.7173 15.6863 20.5509C15.7543 20.3885 15.796 20.1677 15.8166 19.8653C15.8307 19.6587 15.8333 19.4585 15.8363 19.2367C15.8378 19.121 15.8395 18.9994 15.8428 18.868C15.8597 18.2087 15.9105 17.2475 16.579 16.579C17.2465 15.9116 18.2154 15.855 18.8796 15.8359C19.0215 15.8318 19.1514 15.8298 19.2745 15.828C19.4884 15.8247 19.6818 15.8218 19.8828 15.8086C20.187 15.7886 20.4015 15.7485 20.5526 15.6856C20.7065 15.6216 20.8912 15.4955 21.1255 15.2927C21.2819 15.1573 21.4274 15.0182 21.5874 14.8651C21.6746 14.7816 21.7663 14.694 21.8663 14.6006C22.1283 14.3561 22.4325 14.0881 22.768 13.8818Z" fill="#04D361"/>
<path fill-rule="evenodd" clip-rule="evenodd" d="M28.6677 21.2323C28.9536 21.532 28.9424 22.0067 28.6427 22.2927L23.1396 27.5427C22.8496 27.8193 22.3934 27.8191 22.1037 27.5422L19.3568 24.9172C19.0574 24.631 19.0466 24.1563 19.3328 23.8568C19.619 23.5574 20.0937 23.5466 20.3932 23.8328L22.6223 25.963L27.6073 21.2073C27.907 20.9214 28.3817 20.9326 28.6677 21.2323Z" fill="#04D361"/>
</svg>
