<svg width="33" height="33" viewBox="0 0 33 33" fill="none" xmlns="http://www.w3.org/2000/svg">
<path d="M16.6894 31.5909H2.83772C2.67096 31.5931 2.50544 31.5618 2.35094 31.4989C2.19644 31.4359 2.05608 31.3425 1.93815 31.2242C1.82022 31.106 1.72711 30.9652 1.66431 30.8103C1.60151 30.6554 1.57029 30.4894 1.5725 30.3222V16.4318C1.5725 12.4114 3.16517 8.55561 6.00015 5.71273C8.83512 2.86985 12.6802 1.27274 16.6894 1.27274V1.27274C18.6746 1.27274 20.6404 1.66484 22.4744 2.42665C24.3085 3.18847 25.975 4.30508 27.3787 5.71273C28.7825 7.12038 29.896 8.79151 30.6557 10.6307C31.4154 12.4699 31.8064 14.4411 31.8064 16.4318V16.4318C31.8064 18.4225 31.4154 20.3938 30.6557 22.233C29.896 24.0721 28.7825 25.7433 27.3787 27.1509C25.975 28.5586 24.3085 29.6752 22.4744 30.437C20.6404 31.1988 18.6746 31.5909 16.6894 31.5909V31.5909Z" stroke="#00B37E" stroke-width="2" stroke-linecap="round" stroke-linejoin="round"/>
<path d="M11.4314 14.4546H21.2903" stroke="#996DFF" stroke-width="2" stroke-linecap="round" stroke-linejoin="round"/>
<path d="M11.4314 19.7273H21.2903" stroke="#996DFF" stroke-width="2" stroke-linecap="round" stroke-linejoin="round"/>
</svg>
