<svg width="49" height="48" viewBox="0 0 49 48" fill="none" xmlns="http://www.w3.org/2000/svg">
<g filter="url(#filter0_d_38_622)">
<path fill-rule="evenodd" clip-rule="evenodd" d="M24.3712 2.47538C19.64 2.47538 15.1019 4.32087 11.7554 7.60698C8.40879 10.8932 6.52804 15.351 6.52804 19.9999V37.2082C6.52748 37.2504 6.53541 37.2922 6.55151 37.3311C6.56761 37.37 6.59138 37.4051 6.62125 37.4344C6.65111 37.4637 6.68645 37.4867 6.72509 37.5021C6.76373 37.5175 6.80499 37.5251 6.84648 37.5246L6.86327 37.5244L24.3712 37.5245C26.7139 37.5245 29.0337 37.0714 31.1983 36.191C33.3629 35.3106 35.3299 34.02 36.987 32.3929C38.644 30.7657 39.9586 28.8338 40.8556 26.7074C41.7526 24.581 42.2143 22.3018 42.2143 19.9999C42.2143 17.6981 41.7526 15.4189 40.8556 13.2925C39.9586 11.166 38.644 9.23413 36.987 7.60698C35.3299 5.97984 33.3629 4.6893 31.1983 3.80889C29.0337 2.92848 26.7139 2.47538 24.3712 2.47538ZM24.3712 39.9999H6.87026C6.49351 40.0035 6.11982 39.9336 5.77092 39.7944C5.41899 39.6539 5.09952 39.4457 4.83127 39.1823C4.56302 38.9189 4.35141 38.6056 4.20875 38.261C4.0673 37.9192 3.99643 37.5535 4.00014 37.1849V19.9999C4.00014 14.6967 6.14551 9.61004 9.96544 5.85906C13.7855 2.10797 18.9673 0 24.3712 0C27.0468 0 29.6962 0.517502 32.168 1.52287C34.6398 2.52824 36.8855 4.00174 38.7769 5.85906C40.6684 7.71639 42.1686 9.92116 43.1921 12.3474C44.2155 14.7737 44.7422 17.374 44.7422 19.9999C44.7422 22.6259 44.2155 25.2262 43.1921 27.6525C42.1686 30.0787 40.6684 32.2835 38.7769 34.1408C36.8855 35.9981 34.6398 37.4716 32.168 38.477C29.6962 39.4824 27.0468 39.9999 24.3712 39.9999Z" fill="#323238"/>
<path fill-rule="evenodd" clip-rule="evenodd" d="M16.4614 17.5527C16.4614 16.8691 17.0273 16.315 17.7254 16.315H30.1865C30.8846 16.315 31.4505 16.8691 31.4505 17.5527C31.4505 18.2363 30.8846 18.7904 30.1865 18.7904H17.7254C17.0273 18.7904 16.4614 18.2363 16.4614 17.5527Z" fill="#323238"/>
<path fill-rule="evenodd" clip-rule="evenodd" d="M16.4614 24.0787C16.4614 23.3951 17.0273 22.841 17.7254 22.841H30.1865C30.8846 22.841 31.4505 23.3951 31.4505 24.0787C31.4505 24.7622 30.8846 25.3164 30.1865 25.3164H17.7254C17.0273 25.3164 16.4614 24.7622 16.4614 24.0787Z" fill="#323238"/>
</g>
<defs>
<filter id="filter0_d_38_622" x="0" y="0" width="48.7422" height="48" filterUnits="userSpaceOnUse" color-interpolation-filters="sRGB">
<feFlood flood-opacity="0" result="BackgroundImageFix"/>
<feColorMatrix in="SourceAlpha" type="matrix" values="0 0 0 0 0 0 0 0 0 0 0 0 0 0 0 0 0 0 127 0" result="hardAlpha"/>
<feOffset dy="4"/>
<feGaussianBlur stdDeviation="2"/>
<feComposite in2="hardAlpha" operator="out"/>
<feColorMatrix type="matrix" values="0 0 0 0 0 0 0 0 0 0 0 0 0 0 0 0 0 0 0.25 0"/>
<feBlend mode="normal" in2="BackgroundImageFix" result="effect1_dropShadow_38_622"/>
<feBlend mode="normal" in="SourceGraphic" in2="effect1_dropShadow_38_622" result="shape"/>
</filter>
</defs>
</svg>
