<svg width="14" height="18" viewBox="0 0 14 18" fill="none" xmlns="http://www.w3.org/2000/svg">
<path fill-rule="evenodd" clip-rule="evenodd" d="M3.875 10.875C3.875 10.5298 4.15482 10.25 4.5 10.25H9.5C9.84518 10.25 10.125 10.5298 10.125 10.875C10.125 11.2202 9.84518 11.5 9.5 11.5H4.5C4.15482 11.5 3.875 11.2202 3.875 10.875Z" fill="#996DFF"/>
<path fill-rule="evenodd" clip-rule="evenodd" d="M3.875 8.375C3.875 8.02982 4.15482 7.75 4.5 7.75H9.5C9.84518 7.75 10.125 8.02982 10.125 8.375C10.125 8.72018 9.84518 9 9.5 9H4.5C4.15482 9 3.875 8.72018 3.875 8.375Z" fill="#996DFF"/>
<path fill-rule="evenodd" clip-rule="evenodd" d="M0.491117 1.86612C0.725537 1.6317 1.04348 1.5 1.375 1.5H4.5C4.84518 1.5 5.125 1.77982 5.125 2.125C5.125 2.47018 4.84518 2.75 4.5 2.75H1.375L1.375 15.875H12.625V2.75H9.5C9.15482 2.75 8.875 2.47018 8.875 2.125C8.875 1.77982 9.15482 1.5 9.5 1.5H12.625C12.9565 1.5 13.2745 1.6317 13.5089 1.86612C13.7433 2.10054 13.875 2.41848 13.875 2.75V15.875C13.875 16.2065 13.7433 16.5245 13.5089 16.7589C13.2745 16.9933 12.9565 17.125 12.625 17.125H1.375C1.04348 17.125 0.725538 16.9933 0.491117 16.7589C0.256696 16.5245 0.125 16.2065 0.125 15.875V2.75C0.125 2.41848 0.256696 2.10054 0.491117 1.86612Z" fill="#996DFF"/>
<path fill-rule="evenodd" clip-rule="evenodd" d="M7 1.5C6.33696 1.5 5.70107 1.76339 5.23223 2.23223C4.76339 2.70107 4.5 3.33696 4.5 4H9.5C9.5 3.33696 9.23661 2.70107 8.76777 2.23223C8.29893 1.76339 7.66304 1.5 7 1.5ZM4.34835 1.34835C5.05161 0.645088 6.00544 0.25 7 0.25C7.99456 0.25 8.94839 0.645088 9.65165 1.34835C10.3549 2.05161 10.75 3.00544 10.75 4V4.625C10.75 4.97018 10.4702 5.25 10.125 5.25H3.875C3.52982 5.25 3.25 4.97018 3.25 4.625V4C3.25 3.00544 3.64509 2.05161 4.34835 1.34835Z" fill="#996DFF"/>
</svg>
