<svg width="16" height="16" viewBox="0 0 16 16" fill="none" xmlns="http://www.w3.org/2000/svg">
<path fill-rule="evenodd" clip-rule="evenodd" d="M8 1.8125C4.58274 1.8125 1.8125 4.58274 1.8125 8C1.8125 11.4173 4.58274 14.1875 8 14.1875C11.4173 14.1875 14.1875 11.4173 14.1875 8C14.1875 4.58274 11.4173 1.8125 8 1.8125ZM0.6875 8C0.6875 3.96142 3.96142 0.6875 8 0.6875C12.0386 0.6875 15.3125 3.96142 15.3125 8C15.3125 12.0386 12.0386 15.3125 8 15.3125C3.96142 15.3125 0.6875 12.0386 0.6875 8Z" fill="#7C7C8A"/>
<path fill-rule="evenodd" clip-rule="evenodd" d="M7.4375 8C7.4375 7.68934 7.68934 7.4375 8 7.4375H11.9375C12.2482 7.4375 12.5 7.68934 12.5 8C12.5 8.31066 12.2482 8.5625 11.9375 8.5625H8C7.68934 8.5625 7.4375 8.31066 7.4375 8Z" fill="#7C7C8A"/>
<path fill-rule="evenodd" clip-rule="evenodd" d="M7.60225 7.60225C7.82192 7.38258 8.17808 7.38258 8.39775 7.60225L11.1821 10.3866C11.4018 10.6063 11.4018 10.9625 11.1821 11.1821C10.9625 11.4018 10.6063 11.4018 10.3866 11.1821L7.60225 8.39775C7.38258 8.17808 7.38258 7.82192 7.60225 7.60225Z" fill="#7C7C8A"/>
</svg>
