<svg width="20" height="16" viewBox="0 0 20 16" fill="none" xmlns="http://www.w3.org/2000/svg">
<path fill-rule="evenodd" clip-rule="evenodd" d="M2.5 4.875C2.33424 4.875 2.17527 4.94085 2.05806 5.05806C1.94085 5.17527 1.875 5.33424 1.875 5.5V11.125C1.875 11.2908 1.94085 11.4497 2.05806 11.5669C2.17527 11.6842 2.33424 11.75 2.5 11.75H8.75C9.09518 11.75 9.375 12.0298 9.375 12.375C9.375 12.7202 9.09518 13 8.75 13H2.5C2.00272 13 1.52581 12.8025 1.17417 12.4508C0.822544 12.0992 0.625 11.6223 0.625 11.125V5.5C0.625 5.00272 0.822544 4.52581 1.17417 4.17418C1.52581 3.82254 2.00272 3.625 2.5 3.625H8.75C9.09518 3.625 9.375 3.90482 9.375 4.25C9.375 4.59518 9.09518 4.875 8.75 4.875H2.5Z" fill="#996DFF"/>
<path fill-rule="evenodd" clip-rule="evenodd" d="M4.375 14.875C4.375 14.5298 4.65482 14.25 5 14.25H8.75C9.09518 14.25 9.375 14.5298 9.375 14.875C9.375 15.2202 9.09518 15.5 8.75 15.5H5C4.65482 15.5 4.375 15.2202 4.375 14.875Z" fill="#996DFF"/>
<path fill-rule="evenodd" clip-rule="evenodd" d="M13.125 3.625C13.125 3.27982 13.4048 3 13.75 3H16.25C16.5952 3 16.875 3.27982 16.875 3.625C16.875 3.97018 16.5952 4.25 16.25 4.25H13.75C13.4048 4.25 13.125 3.97018 13.125 3.625Z" fill="#996DFF"/>
<path fill-rule="evenodd" clip-rule="evenodd" d="M13.125 6.125C13.125 5.77982 13.4048 5.5 13.75 5.5H16.25C16.5952 5.5 16.875 5.77982 16.875 6.125C16.875 6.47018 16.5952 6.75 16.25 6.75H13.75C13.4048 6.75 13.125 6.47018 13.125 6.125Z" fill="#996DFF"/>
<path fill-rule="evenodd" clip-rule="evenodd" d="M10.625 1.75C10.625 1.05964 11.1846 0.5 11.875 0.5H18.125C18.8154 0.5 19.375 1.05964 19.375 1.75V14.25C19.375 14.9404 18.8154 15.5 18.125 15.5H11.875C11.1846 15.5 10.625 14.9404 10.625 14.25V1.75ZM18.125 1.75H11.875V14.25H18.125V1.75Z" fill="#996DFF"/>
<path fill-rule="evenodd" clip-rule="evenodd" d="M6.875 11.75C7.22018 11.75 7.5 12.0298 7.5 12.375V14.875C7.5 15.2202 7.22018 15.5 6.875 15.5C6.52982 15.5 6.25 15.2202 6.25 14.875V12.375C6.25 12.0298 6.52982 11.75 6.875 11.75Z" fill="#996DFF"/>
<path d="M15 13C15.5178 13 15.9375 12.5803 15.9375 12.0625C15.9375 11.5447 15.5178 11.125 15 11.125C14.4822 11.125 14.0625 11.5447 14.0625 12.0625C14.0625 12.5803 14.4822 13 15 13Z" fill="#996DFF"/>
</svg>
