<svg width="20" height="16" viewBox="0 0 20 16" fill="none" xmlns="http://www.w3.org/2000/svg">
<path fill-rule="evenodd" clip-rule="evenodd" d="M0.447139 0.743203C0.727033 0.437864 1.20146 0.417237 1.5068 0.697131L10 8.48257L18.4932 0.697131C18.7985 0.417237 19.273 0.437864 19.5529 0.743203C19.8328 1.04854 19.8121 1.52297 19.5068 1.80286L10.5068 10.0529C10.2201 10.3157 9.77995 10.3157 9.49321 10.0529L0.493211 1.80286C0.187872 1.52297 0.167245 1.04854 0.447139 0.743203Z" fill="#7C7C8A"/>
<path fill-rule="evenodd" clip-rule="evenodd" d="M0.250004 1.25C0.250004 0.835783 0.585791 0.499997 1 0.499997H19C19.4142 0.499997 19.75 0.835783 19.75 1.25V14C19.75 14.3978 19.592 14.7794 19.3107 15.0607C19.0294 15.342 18.6478 15.5 18.25 15.5H1.75C1.35218 15.5 0.97065 15.342 0.689344 15.0607C0.40804 14.7794 0.250004 14.3978 0.250004 14V1.25ZM1.75 2V14H18.25V2H1.75Z" fill="#7C7C8A"/>
<path fill-rule="evenodd" clip-rule="evenodd" d="M8.91212 7.49307C9.19209 7.79834 9.17158 8.27277 8.8663 8.55274L1.7413 15.0871C1.43603 15.3671 0.961602 15.3466 0.681634 15.0413C0.401667 14.736 0.422182 14.2616 0.727454 13.9816L7.85245 7.44725C8.15773 7.16728 8.63216 7.1878 8.91212 7.49307Z" fill="#7C7C8A"/>
<path fill-rule="evenodd" clip-rule="evenodd" d="M11.0879 7.49307C11.3679 7.1878 11.8423 7.16728 12.1476 7.44725L19.2726 13.9816C19.5778 14.2616 19.5983 14.736 19.3184 15.0413C19.0384 15.3466 18.564 15.3671 18.2587 15.0871L11.1337 8.55274C10.8284 8.27277 10.8079 7.79834 11.0879 7.49307Z" fill="#7C7C8A"/>
</svg>
