<svg width="14" height="20" viewBox="0 0 14 20" fill="none" xmlns="http://www.w3.org/2000/svg">
<path fill-rule="evenodd" clip-rule="evenodd" d="M0.689339 0.68934C0.970643 0.408036 1.35217 0.25 1.75 0.25H12.25C12.6478 0.25 13.0294 0.408035 13.3107 0.68934C13.592 0.970645 13.75 1.35218 13.75 1.75V5.09212C13.7486 5.3233 13.6941 5.55106 13.5907 5.75783C13.4873 5.96461 13.3378 6.14487 13.1537 6.28471L7.45251 10.5981C7.18576 10.7999 6.8176 10.8007 6.55 10.6L0.846301 6.32223C0.662213 6.18238 0.51272 6.00211 0.409334 5.79533C0.305947 5.58856 0.251438 5.3608 0.250013 5.12962L0.249985 5.125L0.249999 1.75C0.249999 1.35217 0.408035 0.970644 0.689339 0.68934ZM12.25 1.75H1.75V5.12084L1.75097 5.12451L1.75332 5.12749L6.99803 9.06102L12.2463 5.09029L12.249 5.08701L12.25 5.08334V1.75Z" fill="#FBA94C"/>
<path fill-rule="evenodd" clip-rule="evenodd" d="M6.55 9.4C6.8176 9.1993 7.18576 9.20007 7.45251 9.40189L13.1537 13.7153C13.3378 13.8551 13.4873 14.0354 13.5907 14.2422C13.6941 14.4489 13.7486 14.6767 13.75 14.9079L13.75 14.9125L13.75 18.25C13.75 18.6478 13.592 19.0294 13.3107 19.3107C13.0294 19.592 12.6478 19.75 12.25 19.75H1.75C1.35218 19.75 0.970645 19.592 0.689339 19.3107C0.408034 19.0294 0.249999 18.6478 0.249999 18.25V14.8704C0.251424 14.6392 0.305947 14.4114 0.409334 14.2047C0.512721 13.9979 0.662224 13.8176 0.846309 13.6778L0.84999 13.675L6.55 9.4ZM1.75 14.8792L1.75097 14.8755L1.75332 14.8725L6.99803 10.939L12.2463 14.9097L12.249 14.913L12.2495 14.9142L12.25 14.9167V18.25H1.75V14.8792Z" fill="#FBA94C"/>
</svg>
