<svg width="41" height="40" viewBox="0 0 41 40" fill="none" xmlns="http://www.w3.org/2000/svg">
<path fill-rule="evenodd" clip-rule="evenodd" d="M20.3712 2.47538C15.64 2.47538 11.1019 4.32087 7.75542 7.60698C4.40879 10.8932 2.52804 15.351 2.52804 19.9999V37.2082C2.52748 37.2504 2.53541 37.2922 2.55151 37.3311C2.56761 37.37 2.59138 37.4051 2.62125 37.4344C2.65111 37.4637 2.68645 37.4867 2.72509 37.5021C2.76373 37.5175 2.80499 37.5251 2.84648 37.5246L2.86327 37.5244L20.3712 37.5245C22.7139 37.5245 25.0337 37.0714 27.1983 36.191C29.3629 35.3106 31.3299 34.02 32.987 32.3929C34.644 30.7657 35.9586 28.8338 36.8556 26.7074C37.7526 24.581 38.2143 22.3018 38.2143 19.9999C38.2143 17.6981 37.7526 15.4189 36.8556 13.2925C35.9586 11.166 34.644 9.23413 32.987 7.60698C31.3299 5.97984 29.3629 4.6893 27.1983 3.80889C25.0337 2.92848 22.7139 2.47538 20.3712 2.47538ZM20.3712 39.9999H2.87026C2.49351 40.0035 2.11982 39.9336 1.77092 39.7944C1.41899 39.6539 1.09952 39.4457 0.831266 39.1823C0.56302 38.9189 0.351413 38.6056 0.208755 38.261C0.0672992 37.9192 -0.00357131 37.5535 0.00013846 37.1849V19.9999C0.00013846 14.6967 2.14551 9.61004 5.96544 5.85906C9.78548 2.10797 14.9673 0 20.3712 0C23.0468 0 25.6962 0.517502 28.168 1.52287C30.6398 2.52824 32.8855 4.00174 34.7769 5.85906C36.6684 7.71639 38.1686 9.92116 39.1921 12.3474C40.2155 14.7737 40.7422 17.374 40.7422 19.9999C40.7422 22.6259 40.2155 25.2262 39.1921 27.6525C38.1686 30.0787 36.6684 32.2835 34.7769 34.1408C32.8855 35.9981 30.6398 37.4716 28.168 38.477C25.6962 39.4824 23.0468 39.9999 20.3712 39.9999Z" fill="#323238"/>
<path fill-rule="evenodd" clip-rule="evenodd" d="M12.4614 17.5527C12.4614 16.8691 13.0273 16.315 13.7254 16.315H26.1865C26.8846 16.315 27.4505 16.8691 27.4505 17.5527C27.4505 18.2363 26.8846 18.7904 26.1865 18.7904H13.7254C13.0273 18.7904 12.4614 18.2363 12.4614 17.5527Z" fill="#323238"/>
<path fill-rule="evenodd" clip-rule="evenodd" d="M12.4614 24.0787C12.4614 23.3951 13.0273 22.841 13.7254 22.841H26.1865C26.8846 22.841 27.4505 23.3951 27.4505 24.0787C27.4505 24.7622 26.8846 25.3164 26.1865 25.3164H13.7254C13.0273 25.3164 12.4614 24.7622 12.4614 24.0787Z" fill="#323238"/>
</svg>
