<svg width="22" height="22" viewBox="0 0 22 22" fill="none" xmlns="http://www.w3.org/2000/svg">
<path fill-rule="evenodd" clip-rule="evenodd" d="M9.10732 3.42673C8.833 3.66423 8.50441 3.91433 8.12865 4.07061C7.75007 4.22808 7.34114 4.28171 6.98117 4.30537C6.74548 4.32086 6.48251 4.32505 6.24282 4.32888C6.12908 4.33069 6.02058 4.33242 5.92274 4.33524C5.20179 4.35597 4.8348 4.44461 4.6397 4.6397C4.44571 4.8337 4.36064 5.18976 4.34233 5.90627C4.33999 5.99803 4.33859 6.0987 4.33712 6.20423C4.33372 6.44908 4.32996 6.72012 4.31316 6.96705C4.28833 7.33226 4.2316 7.74427 4.06991 8.13035C3.9099 8.51239 3.6597 8.84411 3.41953 9.12232C3.25568 9.31212 3.06667 9.50942 2.89515 9.68846C2.82215 9.76466 2.75232 9.83754 2.68895 9.90514C2.45724 10.1523 2.27819 10.3621 2.15636 10.5598C2.03757 10.7525 2 10.8913 2 11C2 11.1077 2.03798 11.2488 2.15936 11.4461C2.28315 11.6473 2.46464 11.8611 2.69708 12.1101C2.76352 12.1813 2.83723 12.2584 2.91424 12.339C3.0832 12.5159 3.26801 12.7094 3.42673 12.8927C3.66423 13.167 3.91433 13.4956 4.07061 13.8713C4.22808 14.2499 4.28171 14.6589 4.30537 15.0188C4.32086 15.2545 4.32505 15.5175 4.32888 15.7572C4.33069 15.8709 4.33242 15.9794 4.33524 16.0773C4.35597 16.7982 4.44461 17.1652 4.6397 17.3603C4.8337 17.5543 5.18976 17.6394 5.90627 17.6577C5.99804 17.66 6.09872 17.6614 6.20427 17.6629C6.4491 17.6663 6.72013 17.67 6.96705 17.6868C7.33226 17.7117 7.74427 17.7684 8.13035 17.9301C8.51239 18.0901 8.84411 18.3403 9.12232 18.5805C9.31212 18.7443 9.50941 18.9333 9.68845 19.1048C9.76465 19.1778 9.83754 19.2477 9.90514 19.311C10.1523 19.5428 10.3621 19.7218 10.5598 19.8436C10.7525 19.9624 10.8913 20 11 20C11.1077 20 11.2488 19.962 11.4461 19.8406C11.6473 19.7168 11.8611 19.5354 12.1101 19.3029C12.1813 19.2365 12.2584 19.1628 12.339 19.0858C12.5159 18.9168 12.7094 18.732 12.8927 18.5733C13.167 18.3358 13.4956 18.0857 13.8713 17.9294C14.2499 17.7719 14.6589 17.7183 15.0188 17.6946C15.2545 17.6791 15.5175 17.6749 15.7572 17.6711C15.8709 17.6693 15.9794 17.6676 16.0773 17.6648C16.7982 17.644 17.1652 17.5554 17.3603 17.3603C17.5543 17.1663 17.6394 16.8102 17.6577 16.0937C17.66 16.002 17.6614 15.9013 17.6629 15.7957C17.6663 15.5509 17.67 15.2799 17.6868 15.0329C17.7117 14.6677 17.7684 14.2557 17.9301 13.8697C18.0901 13.4876 18.3403 13.1559 18.5805 12.8777C18.7443 12.6879 18.9333 12.4906 19.1048 12.3116C19.1778 12.2354 19.2477 12.1625 19.311 12.0949C19.5428 11.8477 19.7218 11.6379 19.8436 11.4402C19.9624 11.2475 20 11.1087 20 11C20 10.8923 19.962 10.7512 19.8406 10.5539C19.7168 10.3527 19.5354 10.1389 19.3029 9.88991C19.2365 9.81873 19.1628 9.74157 19.0858 9.66097C18.9168 9.4841 18.732 9.29064 18.5733 9.10732C18.3358 8.833 18.0857 8.50441 17.9294 8.12865C17.7719 7.75007 17.7183 7.34114 17.6946 6.98117C17.6791 6.74549 17.6749 6.48252 17.6711 6.24284C17.6693 6.12909 17.6676 6.02059 17.6648 5.92274C17.644 5.20179 17.5554 4.8348 17.3603 4.6397C17.1663 4.44571 16.8102 4.36064 16.0937 4.34233C16.002 4.33999 15.9013 4.33859 15.7958 4.33712C15.5509 4.33372 15.2799 4.32996 15.0329 4.31316C14.6677 4.28833 14.2557 4.2316 13.8697 4.06991C13.4876 3.9099 13.1559 3.6597 12.8777 3.41953C12.6879 3.25568 12.4906 3.06667 12.3115 2.89515C12.2353 2.82215 12.1625 2.75232 12.0949 2.68895C11.8477 2.45724 11.6379 2.27819 11.4402 2.15636C11.2475 2.03757 11.1087 2 11 2C10.8923 2 10.7512 2.03798 10.5539 2.15936C10.3527 2.28315 10.1389 2.46464 9.88991 2.69708C9.81873 2.76352 9.74157 2.83723 9.66097 2.91424C9.4841 3.0832 9.29064 3.26801 9.10732 3.42673ZM9.76796 0.881753C10.1074 0.67296 10.5218 0.5 11 0.5C11.4772 0.5 11.8892 0.671025 12.2274 0.879479C12.5606 1.0849 12.8617 1.35175 13.1208 1.59464C13.2151 1.68307 13.3021 1.76653 13.3853 1.84631C13.549 2.0032 13.6978 2.14586 13.8579 2.28409C14.0918 2.48601 14.2827 2.61666 14.4491 2.68634C14.6115 2.75434 14.8323 2.79605 15.1347 2.81662C15.3413 2.83067 15.5415 2.83334 15.7633 2.8363C15.879 2.83784 16.0006 2.83946 16.1321 2.84282C16.7913 2.85967 17.7525 2.91054 18.421 3.57905C19.0884 4.24645 19.145 5.2154 19.1641 5.87961C19.1682 6.02155 19.1702 6.1514 19.172 6.2745C19.1753 6.48837 19.1782 6.68183 19.1914 6.88279C19.2114 7.18698 19.2515 7.40149 19.3144 7.5526C19.3784 7.70653 19.5045 7.89122 19.7073 8.12549C19.8427 8.2819 19.9818 8.42735 20.1349 8.58736C20.2184 8.67464 20.306 8.76625 20.3994 8.86634C20.6439 9.12828 20.9119 9.43247 21.1182 9.76796C21.327 10.1074 21.5 10.5218 21.5 11C21.5 11.4772 21.329 11.8892 21.1205 12.2274C20.9151 12.5606 20.6483 12.8617 20.4054 13.1208C20.3169 13.2151 20.2335 13.3021 20.1537 13.3853C19.9968 13.549 19.8541 13.6978 19.7159 13.8579C19.514 14.0918 19.3833 14.2827 19.3137 14.4491C19.2457 14.6115 19.204 14.8323 19.1834 15.1347C19.1693 15.3413 19.1667 15.5415 19.1637 15.7633C19.1622 15.879 19.1605 16.0006 19.1572 16.1321C19.1403 16.7913 19.0895 17.7525 18.421 18.421C17.7535 19.0884 16.7846 19.145 16.1204 19.1641C15.9785 19.1682 15.8486 19.1702 15.7255 19.172C15.5116 19.1753 15.3182 19.1782 15.1172 19.1914C14.813 19.2114 14.5985 19.2515 14.4474 19.3144C14.2935 19.3784 14.1088 19.5045 13.8745 19.7073C13.7181 19.8427 13.5726 19.9818 13.4126 20.1349C13.3254 20.2184 13.2337 20.306 13.1337 20.3994C12.8717 20.6439 12.5675 20.9119 12.232 21.1182C11.8926 21.327 11.4782 21.5 11 21.5C10.5228 21.5 10.1108 21.329 9.77265 21.1205C9.43942 20.9151 9.13832 20.6483 8.87923 20.4054C8.78491 20.3169 8.69787 20.2335 8.61466 20.1537C8.45104 19.9968 8.30225 19.8541 8.14213 19.7159C7.90823 19.514 7.71729 19.3833 7.5509 19.3137C7.38855 19.2457 7.16774 19.204 6.86527 19.1834C6.65874 19.1693 6.45849 19.1667 6.23671 19.1637C6.12097 19.1622 5.99937 19.1605 5.86795 19.1572C5.20868 19.1403 4.24755 19.0895 3.57905 18.421C2.91164 17.7535 2.85496 16.7846 2.83586 16.1204C2.83177 15.9785 2.82981 15.8486 2.82796 15.7255C2.82473 15.5116 2.82181 15.3182 2.8086 15.1172C2.7886 14.813 2.74849 14.5985 2.68564 14.4474C2.62161 14.2935 2.49553 14.1088 2.2927 13.8745C2.15729 13.7181 2.01817 13.5726 1.86512 13.4126C1.78163 13.3254 1.69401 13.2337 1.60058 13.1337C1.35606 12.8717 1.08814 12.5675 0.881753 12.232C0.67296 11.8926 0.5 11.4782 0.5 11C0.5 10.5228 0.671025 10.1108 0.879479 9.77265C1.0849 9.43942 1.35175 9.13832 1.59464 8.87923C1.68307 8.78491 1.76653 8.69787 1.84631 8.61466C2.0032 8.45103 2.14586 8.30225 2.28409 8.14213C2.48601 7.90823 2.61666 7.71729 2.68634 7.5509C2.75434 7.38855 2.79605 7.16774 2.81662 6.86527C2.83067 6.65874 2.83334 6.45849 2.8363 6.23671C2.83784 6.12097 2.83946 5.99936 2.84282 5.86795C2.85967 5.20868 2.91054 4.24755 3.57905 3.57905C4.24645 2.91164 5.2154 2.85496 5.87961 2.83586C6.02154 2.83177 6.1514 2.82981 6.27449 2.82796C6.48836 2.82473 6.68183 2.82181 6.88279 2.8086C7.18698 2.7886 7.40149 2.74849 7.5526 2.68564C7.70653 2.62161 7.89122 2.49553 8.12549 2.2927C8.2819 2.15729 8.42735 2.01817 8.58736 1.86512C8.67464 1.78163 8.76625 1.69401 8.86634 1.60058C9.12828 1.35606 9.43247 1.08814 9.76796 0.881753Z" fill="#04D361"/>
<path fill-rule="evenodd" clip-rule="evenodd" d="M15.6677 8.2323C15.9536 8.532 15.9424 9.00674 15.6427 9.29266L10.1396 14.5427C9.84962 14.8193 9.39343 14.8191 9.10371 14.5422L6.35684 11.9172C6.05737 11.631 6.0466 11.1563 6.33278 10.8568C6.61895 10.5574 7.0937 10.5466 7.39316 10.8328L9.62232 12.963L14.6073 8.20734C14.907 7.92142 15.3817 7.93259 15.6677 8.2323Z" fill="#04D361"/>
</svg>
